# xmcd
#
# Track frame offsets: 
#        150
#        19119
#        37255
#        65856
#        111725
#        150624
#        216590
#
# Disc length: 3348 seconds
#
# Revision: 0
# Processed by: cddbd v1.5.2PL0 Copyright (c) Steve Scherf et al.
# Submitted via: ExactAudioCopy v0.99pb5
#
DISCID=700d1207
DTITLE=Eric Clapton - Bottle Rocking (Bootleg CD1)
DYEAR=1974
DGENRE=Blues
TTITLE0=Easy Now
TTITLE1=Smile
TTITLE2=Let it Grow
TTITLE3=Can't Find My Way Home
TTITLE4=Key to the Highway
TTITLE5=Willie and the Hand Jive - Get Ready
TTITLE6=Little Wing
EXTD=
EXTT0=
EXTT1=
EXTT2=
EXTT3=
EXTT4=
EXTT5=
EXTT6=
PLAYORDER=
